<?xml version="1.0" encoding="UTF-8" standalone="no"?>
<svg xmlns="http://www.w3.org/2000/svg" viewBox="0 0 24 24">
<style>
	g path { stroke: none; }
	g.root { display: none; }
	g.root:target { display: inline; }
	g line { stroke: black; }
	g circle { stroke: black; }
	g polyline { stroke: black; }
</style>
<g class="root" id="access" data-name="access">
	<path d="M0 24L0 0L24 0L24 24L0 24ZM23.562 0.438L0.438 0.438L0.438 23.562L23.562 23.562L23.562 0.438ZM8.421 4.227L15.579 4.227C16.269 4.227 16.833 4.79 16.833 5.481L16.833 6.618L16.833 17.069L16.833 18.518C16.833 19.209 16.269 19.772 15.579 19.772L8.421 19.772C7.73 19.772 7.167 19.209 7.167 18.518L7.167 17.069L7.167 6.618L7.167 5.481C7.167 4.79 7.73 4.227 8.421 4.227ZM7.634 18.518C7.634 18.952 7.988 19.305 8.421 19.305L15.579 19.305C16.012 19.305 16.365 18.952 16.365 18.518L16.365 17.303L7.634 17.303L7.634 18.518ZM7.634 16.836L16.365 16.836L16.365 6.851L7.634 6.851L7.634 16.836ZM7.634 6.385L16.365 6.385L16.365 5.481C16.365 5.048 16.012 4.694 15.579 4.694L8.421 4.694C7.988 4.694 7.634 5.048 7.634 5.481L7.634 6.385ZM11.153 5.314L12.846 5.314C12.975 5.314 13.079 5.419 13.079 5.548C13.079 5.677 12.975 5.781 12.846 5.781L11.153 5.781C11.025 5.781 10.92 5.677 10.92 5.548C10.92 5.419 11.025 5.314 11.153 5.314ZM12 15.182C10.245 15.182 8.818 13.755 8.818 12C8.818 10.245 10.245 8.818 12 8.818C13.755 8.818 15.182 10.245 15.182 12C15.182 13.755 13.755 15.182 12 15.182ZM12 9.285C10.502 9.285 9.285 10.502 9.285 12C9.285 13.497 10.502 14.715 12 14.715C13.497 14.715 14.715 13.497 14.715 12C14.715 10.502 13.497 9.285 12 9.285ZM11.98 13.201C11.937 13.244 11.877 13.269 11.815 13.269C11.753 13.269 11.694 13.244 11.65 13.201L10.541 12.091C10.45 12 10.45 11.852 10.541 11.761C10.632 11.67 10.78 11.67 10.871 11.761L11.815 12.706L13.502 11.019C13.593 10.927 13.741 10.927 13.832 11.019C13.923 11.11 13.923 11.258 13.832 11.349L11.98 13.201ZM12.139 18.572L11.86 18.572C11.732 18.572 11.627 18.468 11.627 18.339C11.627 18.211 11.732 18.106 11.86 18.106L12.139 18.106C12.268 18.106 12.372 18.211 12.372 18.339C12.372 18.468 12.268 18.572 12.139 18.572Z" />
</g>
<g class="root" id="aff" data-name="aff">
	<path d="M0 24L0 0L24 0L24 24L0 24ZM23.562 0.438L0.438 0.438L0.438 23.562L23.562 23.562L23.562 0.438ZM5.833 13.499L7.75 13.499C7.851 13.499 7.933 13.581 7.933 13.682L7.933 14.711L11.855 13.987C12.024 13.955 12.195 13.96 12.363 13.999L15.068 14.638C15.434 14.724 15.666 15.095 15.582 15.462L15.56 15.56C15.545 15.625 15.512 15.684 15.48 15.74L17.663 15.79C17.663 15.79 17.663 15.79 17.663 15.79C17.773 15.79 17.886 15.819 17.987 15.872C18.24 16.01 18.378 16.273 18.345 16.559C18.312 16.846 18.119 17.072 17.841 17.147L17.319 17.288C15.146 17.88 12.928 18.177 10.696 18.177C9.777 18.177 8.855 18.115 7.933 18.014L7.933 19.044C7.933 19.146 7.851 19.228 7.75 19.228L5.833 19.228C5.731 19.228 5.65 19.146 5.65 19.044L5.65 13.682C5.65 13.581 5.731 13.499 5.833 13.499ZM7.933 17.65C11.06 17.997 14.185 17.762 17.223 16.935L17.745 16.793C17.876 16.756 17.965 16.654 17.981 16.518C17.997 16.381 17.934 16.261 17.813 16.195C17.766 16.171 17.713 16.157 17.66 16.157L14.812 16.092C14.81 16.092 14.808 16.089 14.806 16.089C14.801 16.089 14.796 16.09 14.79 16.09L12.263 15.735L10.929 16.149C10.91 16.154 10.892 16.157 10.874 16.157C10.796 16.157 10.724 16.106 10.7 16.028C10.669 15.931 10.723 15.829 10.82 15.798L12.193 15.372C12.219 15.364 12.247 15.362 12.273 15.366L14.83 15.725L14.846 15.726C15.009 15.746 15.166 15.639 15.203 15.478L15.225 15.382C15.264 15.209 15.155 15.035 14.983 14.995L12.279 14.356C12.161 14.329 12.041 14.325 11.921 14.347L7.933 15.085L7.933 17.65ZM6.016 18.861L7.566 18.861L7.566 13.866L6.016 13.866L6.016 18.861ZM12 11.459C10.156 11.459 8.656 9.96 8.656 8.116C8.656 6.272 10.156 4.772 12 4.772C13.843 4.772 15.344 6.272 15.344 8.116C15.344 9.96 13.843 11.459 12 11.459ZM12 5.139C10.358 5.139 9.022 6.474 9.022 8.116C9.022 9.757 10.358 11.093 12 11.093C13.641 11.093 14.976 9.757 14.976 8.116C14.976 6.474 13.641 5.139 12 5.139ZM12.951 7.343C12.853 7.371 12.752 7.317 12.724 7.219C12.717 7.198 12.577 6.764 12.023 6.758C11.693 6.755 11.307 6.83 11.302 7.209C11.301 7.374 11.343 7.555 11.669 7.651C12.047 7.763 12.43 7.878 12.43 7.878C12.453 7.885 13.018 8.054 13.074 8.663C13.117 9.149 12.796 9.418 12.612 9.497C12.512 9.548 12.366 9.588 12.209 9.615L12.209 10.1C12.209 10.202 12.127 10.283 12.025 10.283C11.924 10.283 11.842 10.202 11.842 10.1L11.842 9.631C11.541 9.6 11.218 9.468 10.954 9.124C10.893 9.044 10.908 8.928 10.988 8.868C11.069 8.805 11.184 8.821 11.245 8.9C11.728 9.53 12.421 9.183 12.45 9.168C12.455 9.166 12.461 9.162 12.466 9.161C12.492 9.149 12.739 9.032 12.708 8.697C12.676 8.34 12.34 8.234 12.326 8.23C12.325 8.23 11.943 8.115 11.564 8.003C11.149 7.88 10.932 7.605 10.936 7.206C10.938 7.027 11.041 6.494 11.842 6.419L11.842 5.974C11.842 5.871 11.924 5.79 12.025 5.79C12.127 5.79 12.209 5.871 12.209 5.974L12.209 6.425C12.74 6.512 13.013 6.895 13.076 7.117C13.104 7.214 13.048 7.315 12.951 7.343Z" />
</g>
<g class="root" id="business" data-name="business">
	<path d="M0 24L0 0L24 0L24 24L0 24ZM23.562 0.437L0.437 0.437L0.437 23.562L23.562 23.562L23.562 0.437ZM4.43 18.209L4.926 18.209L4.926 15.005C4.926 14.888 5.02 14.793 5.137 14.793L7.292 14.793C7.408 14.793 7.503 14.888 7.503 15.005L7.503 18.209L8.783 18.209L8.783 13.076C8.783 12.959 8.877 12.865 8.993 12.865L11.149 12.865C11.265 12.865 11.359 12.959 11.359 13.076L11.359 18.209L12.64 18.209L12.64 15.005C12.64 14.888 12.734 14.793 12.85 14.793L15.006 14.793C15.122 14.793 15.217 14.888 15.217 15.005L15.217 18.209L16.497 18.209L16.497 11.148C16.497 11.032 16.591 10.936 16.708 10.936L18.862 10.936C18.98 10.936 19.074 11.032 19.074 11.148L19.074 18.209L19.57 18.209C19.686 18.209 19.78 18.303 19.78 18.419C19.78 18.536 19.686 18.631 19.57 18.631L4.43 18.631C4.313 18.631 4.219 18.536 4.219 18.419C4.219 18.303 4.313 18.209 4.43 18.209ZM16.919 18.169L18.652 18.169L18.652 11.358L16.919 11.358L16.919 18.169ZM13.062 18.169L14.795 18.169L14.795 15.215L13.062 15.215L13.062 18.169ZM9.205 18.169L10.937 18.169L10.937 13.287L9.205 13.287L9.205 18.169ZM5.348 18.169L7.08 18.169L7.08 15.215L5.348 15.215L5.348 18.169ZM18.759 7.336C18.741 7.341 18.723 7.343 18.705 7.343C18.612 7.343 18.526 7.281 18.501 7.187L18.211 6.108L14.586 12.105C14.77 12.28 14.888 12.524 14.888 12.797C14.888 13.327 14.458 13.757 13.928 13.757C13.399 13.757 12.968 13.327 12.968 12.797C12.968 12.671 12.996 12.552 13.04 12.442L10.716 10.873C10.545 11.03 10.322 11.132 10.071 11.132C9.817 11.132 9.59 11.029 9.419 10.869L7.109 12.753C7.146 12.855 7.174 12.961 7.174 13.076C7.174 13.605 6.744 14.036 6.214 14.036C5.686 14.036 5.255 13.605 5.255 13.076C5.255 12.547 5.686 12.116 6.214 12.116C6.475 12.116 6.71 12.222 6.884 12.392L9.182 10.518C9.14 10.409 9.112 10.295 9.112 10.172C9.112 9.644 9.542 9.213 10.071 9.213C10.601 9.213 11.032 9.644 11.032 10.172C11.032 10.298 11.004 10.418 10.96 10.529L13.282 12.097C13.454 11.939 13.678 11.838 13.928 11.838C14.031 11.838 14.127 11.867 14.22 11.897L17.83 5.922L16.79 6.202C16.679 6.232 16.561 6.165 16.531 6.052C16.5 5.94 16.568 5.824 16.68 5.794L18.228 5.377C18.247 5.372 18.265 5.383 18.284 5.383C18.32 5.382 18.359 5.378 18.392 5.398C18.44 5.425 18.475 5.471 18.49 5.525L18.909 7.077C18.939 7.19 18.872 7.305 18.759 7.336ZM6.214 12.538C5.918 12.538 5.677 12.78 5.677 13.076C5.677 13.372 5.918 13.614 6.214 13.614C6.511 13.614 6.752 13.372 6.752 13.076C6.752 12.78 6.511 12.538 6.214 12.538ZM10.071 9.635C9.774 9.635 9.534 9.876 9.534 10.172C9.534 10.469 9.774 10.71 10.071 10.71C10.368 10.71 10.61 10.469 10.61 10.172C10.61 9.876 10.368 9.635 10.071 9.635ZM13.39 12.797C13.39 13.094 13.631 13.336 13.928 13.336C14.225 13.336 14.466 13.094 14.466 12.797C14.466 12.5 14.225 12.26 13.928 12.26C13.631 12.26 13.39 12.5 13.39 12.797Z" />
</g>
<g class="root" id="complete" data-name="complete">
	<path d="M12 0A12.013 12.013-4.991 0 0 0 12a12.013 12.013 0 0 0 12 12a12.013 12.013 0 0 0 12-12A12.013 12.013-4.991 0 0 12 0Zm6.654 9.555l-7.664 7.663a1.262 1.262 0 0 1-0.886 0.367v0.519l-0.011-0.519a1.262 1.262 0 0 1-0.89-0.383l-3.866-4.006a1.254 1.254 0 0 1 0.032-1.771a1.247 1.247 0 0 1 0.869-0.351a1.242 1.242 0 0 1 0.902 0.383l2.981 3.089L16.879 7.785a1.246 1.246 0 0 1 0.886-0.367a1.246 1.246 0 0 1 0.886 0.367a1.255 1.255 0 0 1 0 1.773Z" />
</g>
<g class="root" id="date" data-name="date">
	<path id="Path_166" class="cls-1" transform="translate(0 0)" d="M23.16 3.057a2.886 2.886 0 0 0-2.138-0.891H18.884V1.4A1.158 1.158 0 0 0 17.815 0.242H16.889a1.158 1.158 0 0 0-1.158 1.158v0.766H8.302V1.4A1.194 1.194 0 0 0 7.126 0.242H6.289a1.176 1.176 0 0 0-1.158 1.176v0.748H3.064A3.064 3.064 0 0 0 0 5.213H0v15.463A3.046 3.046 0 0 0 3.047 23.758H16.889a3.171 3.171 0 0 0 2.245-0.944l3.919-3.919a3.118 3.118 0 0 0 0.944-2.245V5.248A2.957 2.957 0 0 0 23.16 3.057ZM1.907 20.658V8.312H22.126V16.044H18.474a2.138 2.138 0 0 0-2.138 2.138h0v3.563H3.064A1.176 1.176 0 0 1 1.907 20.658Z" />
</g>
<g class="root" id="datetime" data-name="datetime">
	<path d="M19.06 1.412H17.648v-0.706a0.706 0.706 0 0 0-0.706-0.705a0.706 0.706 0 0 0-0.705 0.705v0.706H7.76v-0.706a0.706 0.706 0 0 0-0.705-0.705a0.706 0.706 0 0 0-0.706 0.705v0.706H4.941a4.234 4.234 0 0 0-4.235 4.235v14.118A4.234 4.234-19.81 0 0 4.941 24H19.06a4.234 4.234 0 0 0 4.235-4.235v-14.118A4.234 4.234-19.81 0 0 19.06 1.412ZM12.001 19.765a7.06 7.06 0 0 1-4.991-2.068a7.061 7.061 0 0 1-2.068-4.991a7.06 7.06 0 0 1 2.068-4.991a7.061 7.061 0 0 1 4.991-2.068a7.06 7.06 0 0 1 4.991 2.068a7.061 7.061 0 0 1 2.068 4.991a7.06 7.06 0 0 1-2.068 4.991A7.061 7.061-19.81 0 1 12.001 19.765Zm3.53-7.059a0.708 0.708 0 0 1-0.208 0.498a0.704 0.704 0 0 1-0.498 0.207H12.001a0.704 0.704 0 0 1-0.705-0.705v-3.53a0.705 0.705 0 0 1 0.705-0.705a0.705 0.705 0 0 1 0.705 0.705v2.824h2.118a0.705 0.705 0 0 1 0.706 0.705Z" />
</g>
<g class="root" id="estate" data-name="estate">
	<path d="M0 24L0 0L24 0L24 24L0 24ZM23.563 0.438L0.438 0.438L0.438 23.563L23.563 23.563L23.563 0.438ZM3.794 16.944L4.509 16.944L4.509 9.308C4.509 9.195 4.601 9.103 4.714 9.103L7.57 9.103L7.57 6.852C7.57 6.739 7.661 6.648 7.774 6.648L16.226 6.648C16.339 6.648 16.431 6.739 16.431 6.852L16.431 9.103L19.287 9.103C19.4 9.103 19.492 9.195 19.492 9.308L19.492 16.944L20.207 16.944C20.32 16.944 20.411 17.036 20.411 17.148C20.411 17.261 20.32 17.353 20.207 17.353L16.226 17.353L12.537 17.353L11.463 17.353L7.774 17.353L3.794 17.353C3.681 17.353 3.589 17.261 3.589 17.148C3.589 17.036 3.681 16.944 3.794 16.944ZM16.431 16.944L19.082 16.944L19.082 9.513L16.431 9.513L16.431 16.944ZM11.668 16.944L12.333 16.944L12.333 14.924L11.668 14.924L11.668 16.944ZM7.979 16.944L11.259 16.944L11.259 14.719C11.259 14.606 11.35 14.514 11.463 14.514L12.537 14.514C12.65 14.514 12.742 14.606 12.742 14.719L12.742 16.944L16.022 16.944L16.022 7.057L7.979 7.057L7.979 16.944ZM4.918 16.944L7.57 16.944L7.57 9.513L4.918 9.513L4.918 16.944ZM6.793 15.867L5.72 15.867C5.607 15.867 5.516 15.775 5.516 15.661L5.516 14.719C5.516 14.606 5.607 14.514 5.72 14.514L6.793 14.514C6.906 14.514 6.998 14.606 6.998 14.719L6.998 15.661C6.998 15.775 6.906 15.867 6.793 15.867ZM6.588 14.924L5.925 14.924L5.925 15.457L6.588 15.457L6.588 14.924ZM6.793 13.625L5.72 13.625C5.607 13.625 5.516 13.533 5.516 13.42L5.516 12.478C5.516 12.364 5.607 12.274 5.72 12.274L6.793 12.274C6.906 12.274 6.998 12.364 6.998 12.478L6.998 13.42C6.998 13.533 6.906 13.625 6.793 13.625ZM6.588 12.683L5.925 12.683L5.925 13.216L6.588 13.216L6.588 12.683ZM6.793 11.384L5.72 11.384C5.607 11.384 5.516 11.292 5.516 11.18L5.516 10.236C5.516 10.124 5.607 10.032 5.72 10.032L6.793 10.032C6.906 10.032 6.998 10.124 6.998 10.236L6.998 11.18C6.998 11.292 6.906 11.384 6.793 11.384ZM6.588 10.441L5.925 10.441L5.925 10.974L6.588 10.974L6.588 10.441ZM14.907 15.867L13.833 15.867C13.72 15.867 13.628 15.775 13.628 15.661L13.628 14.719C13.628 14.606 13.72 14.514 13.833 14.514L14.907 14.514C15.02 14.514 15.111 14.606 15.111 14.719L15.111 15.661C15.111 15.775 15.02 15.867 14.907 15.867ZM14.702 14.924L14.037 14.924L14.037 15.457L14.702 15.457L14.702 14.924ZM14.907 13.625L13.833 13.625C13.72 13.625 13.628 13.533 13.628 13.42L13.628 12.478C13.628 12.364 13.72 12.274 13.833 12.274L14.907 12.274C15.02 12.274 15.111 12.364 15.111 12.478L15.111 13.42C15.111 13.533 15.02 13.625 14.907 13.625ZM14.702 12.683L14.037 12.683L14.037 13.216L14.702 13.216L14.702 12.683ZM14.907 11.384L13.833 11.384C13.72 11.384 13.628 11.292 13.628 11.18L13.628 10.236C13.628 10.124 13.72 10.032 13.833 10.032L14.907 10.032C15.02 10.032 15.111 10.124 15.111 10.236L15.111 11.18C15.111 11.292 15.02 11.384 14.907 11.384ZM14.702 10.441L14.037 10.441L14.037 10.974L14.702 10.974L14.702 10.441ZM14.907 9.142L13.833 9.142C13.72 9.142 13.628 9.051 13.628 8.938L13.628 7.996C13.628 7.882 13.72 7.79 13.833 7.79L14.907 7.79C15.02 7.79 15.111 7.882 15.111 7.996L15.111 8.938C15.111 9.051 15.02 9.142 14.907 9.142ZM14.702 8.2L14.037 8.2L14.037 8.733L14.702 8.733L14.702 8.2ZM12.537 13.625L11.463 13.625C11.35 13.625 11.259 13.533 11.259 13.42L11.259 12.478C11.259 12.364 11.35 12.274 11.463 12.274L12.537 12.274C12.65 12.274 12.742 12.364 12.742 12.478L12.742 13.42C12.742 13.533 12.65 13.625 12.537 13.625ZM12.333 12.683L11.668 12.683L11.668 13.216L12.333 13.216L12.333 12.683ZM12.537 11.384L11.463 11.384C11.35 11.384 11.259 11.292 11.259 11.18L11.259 10.236C11.259 10.124 11.35 10.032 11.463 10.032L12.537 10.032C12.65 10.032 12.742 10.124 12.742 10.236L12.742 11.18C12.742 11.292 12.65 11.384 12.537 11.384ZM12.333 10.441L11.668 10.441L11.668 10.974L12.333 10.974L12.333 10.441ZM12.537 9.142L11.463 9.142C11.35 9.142 11.259 9.051 11.259 8.938L11.259 7.996C11.259 7.882 11.35 7.79 11.463 7.79L12.537 7.79C12.65 7.79 12.742 7.882 12.742 7.996L12.742 8.938C12.742 9.051 12.65 9.142 12.537 9.142ZM12.333 8.2L11.668 8.2L11.668 8.733L12.333 8.733L12.333 8.2ZM10.168 15.867L9.094 15.867C8.981 15.867 8.889 15.775 8.889 15.661L8.889 14.719C8.889 14.606 8.981 14.514 9.094 14.514L10.168 14.514C10.281 14.514 10.373 14.606 10.373 14.719L10.373 15.661C10.373 15.775 10.281 15.867 10.168 15.867ZM9.963 14.924L9.299 14.924L9.299 15.457L9.963 15.457L9.963 14.924ZM10.168 13.625L9.094 13.625C8.981 13.625 8.889 13.533 8.889 13.42L8.889 12.478C8.889 12.364 8.981 12.274 9.094 12.274L10.168 12.274C10.281 12.274 10.373 12.364 10.373 12.478L10.373 13.42C10.373 13.533 10.281 13.625 10.168 13.625ZM9.963 12.683L9.299 12.683L9.299 13.216L9.963 13.216L9.963 12.683ZM10.168 11.384L9.094 11.384C8.981 11.384 8.889 11.292 8.889 11.18L8.889 10.236C8.889 10.124 8.981 10.032 9.094 10.032L10.168 10.032C10.281 10.032 10.373 10.124 10.373 10.236L10.373 11.18C10.373 11.292 10.281 11.384 10.168 11.384ZM9.963 10.441L9.299 10.441L9.299 10.974L9.963 10.974L9.963 10.441ZM10.168 9.142L9.094 9.142C8.981 9.142 8.889 9.051 8.889 8.938L8.889 7.996C8.889 7.882 8.981 7.79 9.094 7.79L10.168 7.79C10.281 7.79 10.373 7.882 10.373 7.996L10.373 8.938C10.373 9.051 10.281 9.142 10.168 9.142ZM9.963 8.2L9.299 8.2L9.299 8.733L9.963 8.733L9.963 8.2ZM18.293 15.867L17.22 15.867C17.106 15.867 17.014 15.775 17.014 15.661L17.014 14.719C17.014 14.606 17.106 14.514 17.22 14.514L18.293 14.514C18.406 14.514 18.498 14.606 18.498 14.719L18.498 15.661C18.498 15.775 18.406 15.867 18.293 15.867ZM18.088 14.924L17.425 14.924L17.425 15.457L18.088 15.457L18.088 14.924ZM18.293 13.625L17.22 13.625C17.106 13.625 17.014 13.533 17.014 13.42L17.014 12.478C17.014 12.364 17.106 12.274 17.22 12.274L18.293 12.274C18.406 12.274 18.498 12.364 18.498 12.478L18.498 13.42C18.498 13.533 18.406 13.625 18.293 13.625ZM18.088 12.683L17.425 12.683L17.425 13.216L18.088 13.216L18.088 12.683ZM18.293 11.384L17.22 11.384C17.106 11.384 17.014 11.292 17.014 11.18L17.014 10.236C17.014 10.124 17.106 10.032 17.22 10.032L18.293 10.032C18.406 10.032 18.498 10.124 18.498 10.236L18.498 11.18C18.498 11.292 18.406 11.384 18.293 11.384ZM18.088 10.441L17.425 10.441L17.425 10.974L18.088 10.974L18.088 10.441Z" />
</g>
<g class="root" id="globe" data-name="globe">
	<path d="M12 21.549a9.36 9.36 0 0 1-5.052-1.464l0.48-2.256a2.671 2.671 0 0 0-0.18-1.644l-0.732-1.584a0.587 0.587 0 0 0-0.456-0.336l-2.652-0.372a0.319 0.319 0 0 1-0.204-0.528l0.456-0.564a0.632 0.632 0 0 1 0.528-0.204l0.996 0.156a0.856 0.856 0 0 0 0.348-0.024l1.344-0.3a0.253 0.253 0 0 0 0.12-0.048l0.888-0.432a0.566 0.566 0 0 0 0.324-0.432l0.36-2.652a0.564 0.564 0 0 0-0.36-0.612l-0.456-0.168a0.6 0.6 0 0 1-0.396-0.528a0.586 0.586 0 0 1 0.528-0.612l0.66-0.048a0.583 0.583 0 0 0 0.528-0.612l-0.048-0.804l-0.084-1.596a0.536 0.536 0 0 0-0.372-0.504l-0.36-0.12a9.394 9.394 0 0 1 3.768-0.756a8.304 8.304 0 0 1 2.124 0.252l0.072 1.416v0.048l-0.18 1.764a0.258 0.258 0 0 0 0.048 0.18l0.204 0.3a0.253 0.253 0 0 0 0.384 0.048l0.528-0.48a0.277 0.277 0 0 1 0.432 0.132l0.024 0.072a0.24 0.24 0 0 0 0.228 0.18l0.6 0.024a0.161 0.161 0 0 0 0.108-0.024l0.504-0.204a0.246 0.246 0 0 1 0.324 0.324l-0.276 0.912a0.232 0.232 0 0 1-0.228 0.18l-0.672 0.024h-0.084l-0.852-0.252a0.454 0.454 0 0 0-0.18 0l-0.408 0.18a0.298 0.298 0 0 1-0.204 0l-0.528-0.252a0.258 0.258 0 0 0-0.228 0.024l-0.684 0.48a0.226 0.226 0 0 0-0.096 0.204l0.096 0.78a0.215 0.215 0 0 1-0.144 0.252l-0.504 0.228a0.26 0.26 0 0 0-0.084 0.408l0.36 0.324a0.346 0.346 0 0 0 0.228 0.072l0.648-0.144a0.329 0.329 0 0 1 0.156 0.024l0.3 0.12a5.488 5.488 0 0 1 0.48 0.36a0.272 0.272 0 0 0 0.384-0.048a0.34 0.34 0 0 1 0.18-0.132l0.504-0.048a0.208 0.208 0 0 0 0.144-0.072l0.06-0.06a0.24 0.24 0 0 1 0.396 0.108l0.252 0.708c0.024 0.024 0.024 0.048 0.048 0.072l0.288 0.384a0.274 0.274 0 0 1-0.024 0.348l-0.708 0.66a0.26 0.26 0 0 1-0.36 0l-0.684-0.636c-0.024-0.024-0.048-0.024-0.072-0.048l-0.96-0.408c-0.024 0-0.048-0.024-0.072-0.024l-1.272-0.12h-0.096l-1.056 0.3a1.015 1.015 0 0 0-0.708 0.684l-0.252 0.78a0.922 0.922 0 0 0 0.048 0.756l0.396 0.864a1.1 1.1 0 0 0 0.864 0.6l0.96 0.108c0.024 0 0.072 0.024 0.096 0.024l0.54 0.3a0.247 0.247 0 0 1 0.12 0.204l0.072 0.96a2.771 2.771 0 0 0 0.288 0.96l0.456 0.852a0.277 0.277 0 0 0 0.072 0.108l0.756 0.552a0.308 0.308 0 0 0 0.432-0.072l0.252-0.336c0.024-0.048 0.048-0.072 0.072-0.12l0.552-1.392a0.072 0.072 0 0 1 0.036-0.072l0.168-2.004c0-0.024 0.036-0.048 0.036-0.072l0.396-0.828a0.284 0.284 0 0 1 0.252-0.156l1.368 0.18a0.36 0.36 0 0 0 0.228-0.084l0.252-0.276a0.272 0.272 0 0 0 0.024-0.324l-0.66-0.864a0.275 0.275 0 0 1 0.156-0.408l0.252-0.048c0.048 0 0.432-0.024 0.552-0.048h0.048l0.612 0.096a0.264 0.264 0 0 1 0.252 0.288l-0.156 1.74a0.157 0.157 0 0 0 0.036 0.12l0.48 1.248a9.574 9.574 0 0 1-8.772 5.784h0Zm0-21.549a12 12 0 1 0 12 12A12 12-5645.373 0 0 12 0Z" />
</g>
<g class="root" id="home" data-name="home">
	<path style="stroke-width: 2;" d="M23.871 13.328l-11.548-11.974a0.437 0.437 0 0 0-0.32-0.137h0a0.443 0.443 0 0 0-0.328 0.133l-11.548 11.98a0.448 0.448 0 0 0 0.008 0.635a0.472 0.472 0 0 0 0.328 0.121a0.448 0.448 0 0 0 0.312-0.136l1.501-1.557V22.331a0.456 0.456 0 0 0 0.456 0.449h6.332a0.448 0.448 0 0 0 0.448-0.449V15.363h4.968v6.969a0.456 0.456 0 0 0 0.456 0.449h6.332a0.456 0.456 0 0 0 0.456-0.449V12.39l1.493 1.553a0.464 0.464 0 0 0 0.32 0.139h0.008a0.445 0.445 0 0 0 0.328-0.755h0Zm-8.935 1.137h-5.871a0.448 0.448 0 0 0-0.448 0.448v6.972h-5.439V11.452l8.816-9.151l8.824 9.151V21.883h-5.439v-6.972a0.448 0.448 0 0 0-0.448-0.448h0Z" />
</g>
<g class="root" id="knowledge" data-name="knowledge">
	<path d="M0 24L0 0L24 0L24 24L0 24ZM23.562 0.438L0.438 0.438L0.438 23.562L23.562 23.562L23.562 0.438ZM5.247 10.05L6.433 10.258C6.557 10.281 6.64 10.399 6.619 10.523C6.599 10.634 6.503 10.713 6.394 10.713C6.38 10.713 6.367 10.711 6.354 10.709L5.167 10.499C5.042 10.478 4.96 10.359 4.982 10.235C5.003 10.11 5.122 10.027 5.247 10.05ZM6.955 14.121C7.065 14.058 7.205 14.094 7.268 14.204C7.331 14.314 7.293 14.454 7.183 14.517L6.141 15.119C6.105 15.14 6.066 15.15 6.026 15.15C5.948 15.15 5.871 15.109 5.828 15.035C5.765 14.925 5.803 14.786 5.911 14.723L6.955 14.121ZM7.742 6.042L8.516 6.964C8.597 7.061 8.584 7.205 8.487 7.287C8.444 7.322 8.392 7.34 8.341 7.34C8.275 7.34 8.21 7.312 8.165 7.258L7.391 6.336C7.31 6.239 7.322 6.095 7.42 6.013C7.516 5.932 7.66 5.944 7.742 6.042ZM11.577 7.802C12.649 7.685 13.676 8.011 14.473 8.723C15.259 9.427 15.709 10.435 15.709 11.488C15.709 12.25 15.479 12.981 15.044 13.604C14.104 14.952 13.576 16.517 13.519 18.129C13.489 18.984 12.794 19.653 11.939 19.653C11.083 19.653 10.389 18.984 10.359 18.129L10.351 17.941C10.296 16.389 9.798 14.867 8.911 13.54C8.423 12.807 8.215 11.951 8.315 11.065C8.503 9.364 9.875 7.991 11.577 7.802ZM10.809 17.924L10.816 18.112C10.838 18.72 11.33 19.196 11.939 19.196C12.547 19.196 13.039 18.72 13.062 18.112C13.079 17.629 13.147 17.151 13.243 16.68C12.775 16.854 12.331 16.941 11.947 16.941C11.375 16.941 10.941 16.807 10.677 16.703C10.751 17.106 10.795 17.514 10.809 17.924ZM9.293 13.286C9.888 14.178 10.297 15.158 10.545 16.173C10.574 16.177 10.604 16.168 10.631 16.185C10.68 16.211 11.846 16.852 13.317 16.175C13.336 16.167 13.355 16.176 13.374 16.173C13.641 15.173 14.063 14.212 14.669 13.343C15.05 12.797 15.251 12.155 15.251 11.488C15.251 10.565 14.856 9.681 14.167 9.066C13.564 8.524 12.806 8.237 12.004 8.237C11.88 8.237 11.754 8.243 11.627 8.257C10.137 8.423 8.935 9.625 8.77 11.116C8.683 11.893 8.863 12.643 9.293 13.286ZM15.513 7.287C15.415 7.205 15.403 7.061 15.484 6.964L16.258 6.042C16.34 5.944 16.484 5.932 16.58 6.013C16.677 6.095 16.69 6.239 16.609 6.336L15.835 7.258C15.789 7.312 15.725 7.34 15.659 7.34C15.607 7.34 15.556 7.322 15.513 7.287ZM17.045 14.121L18.088 14.723C18.197 14.786 18.235 14.925 18.172 15.035C18.129 15.109 18.052 15.15 17.973 15.15C17.934 15.15 17.895 15.14 17.858 15.119L16.815 14.517C16.706 14.454 16.669 14.314 16.732 14.204C16.795 14.094 16.935 14.058 17.045 14.121ZM17.606 10.713C17.497 10.713 17.401 10.634 17.381 10.523C17.359 10.399 17.443 10.281 17.567 10.258L18.753 10.05C18.879 10.026 18.997 10.11 19.018 10.235C19.039 10.359 18.957 10.478 18.832 10.499L17.646 10.709C17.632 10.711 17.62 10.713 17.606 10.713ZM12 6.009C11.874 6.009 11.771 5.905 11.771 5.779L11.771 4.575C11.771 4.449 11.874 4.346 12 4.346C12.126 4.346 12.229 4.449 12.229 4.575L12.229 5.779C12.229 5.905 12.126 6.009 12 6.009Z" />
</g>
<g class="root" id="location_pin" data-name="location-pin">
	<path d="M12.134 0.001a9.118 9.118 0 0 0-1.521 0.107a8.949 8.949 0 0 0-7.558 8.705C2.974 13.756 8.757 20.897 11.859 24c3.908-3.908 9.01-9.97 9.087-14.912l-5.109-0.08h0a3.959 3.959 0 0 1-1.395 2.187a3.959 3.959 0 0 1-2.451 0.852a3.959 3.959 0 0 1-2.792-1.161a3.959 3.959 0 0 1-1.154-2.795a3.959 3.959 0 0 1 1.16-2.792a3.959 3.959 0 0 1 2.795-1.154a3.959 3.959 0 0 1 2.793 1.16a3.952 3.952 0 0 1 1.154 2.795l-3.952 0l3.952 0h0a3.866 3.866 0 0 1-0.112 0.907l5.107 0.077a8.95 8.95 0 0 0-8.813-9.083Z" />
</g>
<g class="root" id="logo" data-name="logo">
	<path d="M23.816 0L0.185 0C0.083 0 0 0.083 0 0.185L0 23.808C0 23.911 0.083 23.994 0.185 23.994L1.925 23.994C1.94 23.997 1.955 24 1.971 24L7.527 24C7.623 24 7.701 23.922 7.701 23.824L7.701 23.79C7.701 23.693 7.623 23.616 7.527 23.616L4.905 23.616C4.783 23.616 4.697 23.493 4.742 23.378L7.493 16.095C7.519 16.027 7.585 15.981 7.658 15.981L10.832 15.981C10.75 15.888 10.671 15.794 10.598 15.694C10.575 15.663 10.554 15.63 10.531 15.596L7.953 15.596C7.832 15.596 7.748 15.475 7.79 15.36L10.559 8.039C10.617 7.888 10.83 7.888 10.887 8.039L11.629 10.003C10.758 10.437 10.085 11.182 9.74 12.079C10.06 11.767 10.434 11.512 10.854 11.331C9.899 12.21 9.745 13.475 9.745 13.475C10.034 13.049 10.397 12.73 10.742 12.486C10.287 13.462 10.491 14.719 11.086 15.596C11.108 15.63 11.13 15.663 11.151 15.694C11.227 15.794 11.306 15.888 11.388 15.981C12.101 16.789 13.075 17.337 13.682 17.95C13.774 17.827 13.36 16.978 13.238 16.762C13.705 16.919 14.077 17.084 14.399 17.276C15.021 17.644 15.448 18.101 15.974 18.758C15.802 16.868 14.402 16.421 13.379 15.596C12.882 15.195 12.474 14.705 12.339 13.914C12.219 14.042 12.001 14.405 11.948 14.973C11.66 14.576 11.441 13.763 11.816 12.832C12.009 13.082 12.317 13.329 12.652 13.36C12.352 12.897 12.218 12.334 12.32 11.83C12.359 11.641 12.43 11.462 12.539 11.298L12.291 11.107C12.762 10.779 13.54 10.721 13.979 11.148C13.979 11.148 13.869 11.251 13.729 11.537C12.082 11.432 12.609 14.733 15.387 14.343C13.909 14.088 13.364 12.481 14.308 11.333C14.469 11.146 14.652 10.974 14.884 10.783L14.844 10.677L14.509 9.797L14.495 9.758L13.644 7.522C15.647 7.816 15.724 8.631 15.662 9.872C16.126 9.001 16.555 8.738 16.555 8.738C16.555 8.738 16.508 9.45 16.562 10.096C16.972 10.284 17.599 10.632 17.881 10.853C18.02 10.941 17.963 11.244 18.132 11.344C19.165 11.959 20.324 12.533 20.667 12.902C20.564 12.998 20.412 13.065 20.13 13.137C19.701 13.243 19.42 13.145 19.397 13.138C19.734 13.527 20.164 13.748 20.675 13.781C20.912 14.863 19.152 14.745 18.401 14.874C17.929 15.218 17.442 15.539 16.992 15.915C17.479 15.395 18.023 14.96 18.327 14.73C18.256 14.697 18.192 14.662 18.141 14.62C17.847 14.811 17.389 15.137 16.895 15.521C17.185 15.203 17.702 14.774 18.042 14.503C17.988 14.437 17.958 14.375 17.936 14.326L16.868 15.054C17.044 14.895 17.906 14.183 18.284 13.812C18.571 13.533 18.592 13.272 18.275 12.967C18.569 13.619 17.062 13.912 15.931 13.54C15.497 13.397 15.117 13.155 14.92 12.798C14.833 13.465 15.62 13.977 16.205 14.26C16.54 14.423 16.809 14.511 16.809 14.511C16.809 14.511 16.642 14.599 16.373 14.703C15.872 14.896 15.012 15.151 14.203 15.014C14.488 15.656 15.896 15.82 17.058 16.504C17.84 16.964 18.512 17.66 18.653 18.898C19.05 18.266 18.891 17.056 18.562 16.238C20.422 17.979 19.607 19.733 18.625 20.625C18.404 20.824 18.176 20.98 17.969 21.084C17.85 21.893 17.585 22.654 17.192 23.355C17.114 23.441 16.931 23.624 16.54 23.616L13.92 23.616C13.822 23.616 13.744 23.693 13.744 23.79L13.744 23.824C13.744 23.922 13.822 24 13.92 24L22.03 24C22.045 24 22.06 23.997 22.075 23.994L23.816 23.994C23.917 23.994 24 23.911 24 23.808L24 0.185C24 0.083 23.917 0 23.816 0ZM18.5 15.146C19.111 15.112 19.674 15.079 20.27 14.944C20.611 15.26 20.569 16.103 19.921 16.577C20.11 15.689 18.328 16.008 18.5 15.146ZM23.631 23.624L22.08 23.624C22.065 23.619 22.048 23.616 22.03 23.616L19.88 23.616C19.809 23.616 19.743 23.571 19.717 23.503L19.04 21.724C20.623 20.671 20.234 18.303 20.227 18.317C20.18 17.957 20.08 17.588 19.906 17.211L20.218 16.988C20.615 16.7 20.889 16.27 20.969 15.781C21.022 15.455 20.976 15.103 20.809 14.819C20.894 14.741 20.97 14.662 21.036 14.564C21.208 14.296 21.242 13.983 21.167 13.679L21.068 13.222C21.244 13.021 21.288 12.83 21.033 12.553C20.787 12.288 20.362 12.043 20.047 11.855C19.603 11.593 19.145 11.345 18.695 11.082C18.623 11.042 18.55 11.002 18.486 10.96C18.438 10.784 18.393 10.635 18.246 10.496C18.221 10.478 18.205 10.465 18.181 10.447C17.881 10.214 17.438 9.965 17.05 9.773C17.024 9.108 17.086 8.452 17.127 7.8L16.293 8.307C16.246 8.336 16.191 8.367 16.145 8.411C16.002 7.41 14.858 7.233 13.604 7.414L12.33 4.065C12.305 3.998 12.241 3.952 12.167 3.952L11.75 3.952C11.678 3.952 11.613 3.998 11.587 4.065L4.254 23.503C4.23 23.571 4.164 23.616 4.091 23.616L1.971 23.616C1.952 23.616 1.936 23.619 1.92 23.624L0.369 23.624L0.369 0.369L23.631 0.369L23.631 23.624Z" />
</g>
<g class="root" id="phone" data-name="phone">
	<path d="M21.594 17.916c-1.164-0.432-2.28-0.912-3.408-1.44-1.068-0.528-2.148-1.056-3.168-1.68l-1.776 3.216a23.269 23.269 0 0 1-7.092-9.924l3.456-0.72a42.32 42.32 0 0 1-0.888-7.368l-4.164 0.144l-2.148 0.048a26.015 26.015 0 0 0 17.088 23.808l0.708-2.064Z" />
</g>
<g class="root" id="res" data-name="res">
	<path d="M0 24L0 0L24 0L24 24L0 24ZM23.561 0.44L0.44 0.44L0.44 23.561L23.561 23.561L23.561 0.44ZM5.033 7.605L13.596 7.605C14.012 7.605 14.35 7.943 14.35 8.359L14.35 12.579L15.393 11.767C15.592 11.611 15.828 11.525 16.056 11.524L16.062 11.524C16.062 11.524 16.062 11.524 16.062 11.524L18.569 11.524C19.205 11.524 19.722 12.042 19.722 12.678L19.722 15.306C19.722 15.491 19.644 15.668 19.507 15.792C19.371 15.915 19.187 15.977 19.003 15.959C18.902 15.95 18.808 15.915 18.726 15.864L18.726 16.239C18.726 16.325 18.655 16.396 18.569 16.396C18.481 16.396 18.411 16.325 18.411 16.239L18.411 15.285L18.411 13.121C18.411 13.034 18.481 12.964 18.569 12.964C18.655 12.964 18.726 13.034 18.726 13.121L18.726 15.285C18.726 15.471 18.86 15.63 19.033 15.646C19.131 15.655 19.224 15.624 19.296 15.559C19.367 15.494 19.408 15.402 19.408 15.306L19.408 12.678C19.408 12.215 19.031 11.839 18.569 11.839L18.569 11.839L16.062 11.839C15.899 11.84 15.731 11.903 15.586 12.015L14.499 12.861C14.484 12.873 14.467 12.881 14.45 12.887L13.298 13.253C13.221 13.278 13.16 13.331 13.124 13.404C13.089 13.476 13.085 13.557 13.113 13.633C13.164 13.765 13.301 13.842 13.439 13.815L14.099 13.689C14.497 13.613 14.885 13.489 15.253 13.32L15.997 12.978C16.045 12.955 16.102 12.959 16.147 12.988C16.192 13.017 16.22 13.067 16.22 13.121L16.22 15.285C16.22 15.285 16.219 15.286 16.219 15.286C16.219 15.286 16.219 15.286 16.219 15.286L16.219 16.239C16.219 16.325 16.148 16.396 16.062 16.396C15.975 16.396 15.905 16.325 15.905 16.239L15.905 15.286C15.905 15.286 15.905 15.286 15.905 15.285C15.905 15.285 15.905 15.285 15.905 15.285L15.905 13.366L15.384 13.606C15.055 13.757 14.703 13.855 14.35 13.936L14.35 14.269C14.35 14.684 14.012 15.023 13.596 15.023L12.417 15.023L12.417 16.082L13.34 16.082C13.426 16.082 13.497 16.152 13.497 16.239C13.497 16.325 13.426 16.396 13.34 16.396L11.18 16.396C11.093 16.396 11.022 16.325 11.022 16.239C11.022 16.152 11.093 16.082 11.18 16.082L12.102 16.082L12.102 15.023L6.526 15.023L6.526 16.082L7.449 16.082C7.535 16.082 7.606 16.152 7.606 16.239C7.606 16.325 7.535 16.396 7.449 16.396L5.289 16.396C5.202 16.396 5.131 16.325 5.131 16.239C5.131 16.152 5.202 16.082 5.289 16.082L6.211 16.082L6.211 15.023L5.033 15.023C4.618 15.023 4.279 14.684 4.279 14.269L4.279 8.359C4.279 7.943 4.618 7.605 5.033 7.605ZM4.593 14.269C4.593 14.511 4.791 14.708 5.033 14.708L13.596 14.708C13.838 14.708 14.035 14.511 14.035 14.269L14.035 14.021L13.498 14.124C13.209 14.179 12.923 14.019 12.82 13.744C12.772 13.62 12.779 13.491 12.815 13.367L11.539 12.611C11.465 12.566 11.44 12.47 11.485 12.395C11.528 12.32 11.625 12.296 11.699 12.34L13.012 13.118C13.076 13.06 13.118 12.98 13.202 12.953L14.035 12.689L14.035 8.359C14.035 8.116 13.838 7.919 13.596 7.919L5.033 7.919C4.791 7.919 4.593 8.116 4.593 8.359L4.593 14.269ZM17.315 11.16C16.764 11.16 16.316 10.712 16.316 10.162C16.316 9.61 16.764 9.162 17.315 9.162C17.865 9.162 18.314 9.61 18.314 10.162C18.314 10.712 17.865 11.16 17.315 11.16ZM17.315 9.477C16.938 9.477 16.631 9.784 16.631 10.162C16.631 10.538 16.938 10.845 17.315 10.845C17.692 10.845 17.999 10.538 17.999 10.162C17.999 9.784 17.692 9.477 17.315 9.477Z" />
</g>
<g class="root" id="search" data-name="search">
	<path d="M23.234 21.861L17.522 15.92c1.468-1.746 2.274-3.942 2.274-6.23c0-5.343-4.347-9.69-9.69-9.69s-9.69 4.347-9.69 9.69s4.347 9.69 9.69 9.69c2.006 0 3.918-0.604 5.552-1.754l5.756 5.986c0.24 0.25 0.564 0.387 0.91 0.387c0.328 0 0.639-0.126 0.876-0.352C23.7 23.164 23.716 22.364 23.234 21.861zM10.104 2.529c3.95 0 7.163 3.213 7.163 7.163s-3.213 7.163-7.163 7.163s-7.163-3.213-7.163-7.163S6.156 2.529 10.104 2.529z" />
</g>
</svg>