<?xml version="1.0" encoding="UTF-8" standalone="no"?>
<svg xmlns="http://www.w3.org/2000/svg">
<style>
.root {
	display:none;
}

.root:target {
	display: block;
}
</style>

<g class="root" id="header" viewBox="0 0 331 20">
	<g class="center">
		<path class="line" d="M171.9,13.5H331" style="stroke-dashoffset: 160; stroke-dasharray: 160;"/>
		<path class="line" d="M0,13.5h159.8" style="stroke-dashoffset: 160; stroke-dasharray: 160;"/>
		<path class="line" d="M175.5,9.9h75" style="stroke-dashoffset: 75; stroke-dasharray: 75;"/>
		<path class="line" d="M81.7,10h75" style="stroke-dashoffset: 75; stroke-dasharray: 75;"/>
		<path class="line" d="M170.9,5.5H331" style="stroke-dashoffset: 161; stroke-dasharray: 161;"/>
		<path class="line" d="M0,5.5h161.1" style="stroke-dashoffset: 162; stroke-dasharray: 162;"/>
		<path class="diamond" d="M166,0.5l9.5,9.5l-9.5,9.5l-9.5-9.5L166,0.5z" style="stroke-dashoffset: 54; stroke-dasharray: 54;"/>
	</g>	
	<g class="left">
		<path class="line" d="M15.5,14.5h165" style="stroke-dashoffset: 165; stroke-dasharray: 165;"/>
		<path class="line" d="M19.2,10h223" style="stroke-dashoffset: 223; stroke-dasharray: 223;"/>
		<path class="line" d="M15.5,5.5h330" style="stroke-dashoffset: 330; stroke-dasharray: 330;"/>
		<path class="diamond" d="M10,0.5l9.5,9.5L10,19.5L0.5,10L10,0.5z" style="stroke-dashoffset: 54; stroke-dasharray: 54;"/>
	</g>	
	<g class="right">
		<path class="line" d="M315.1,13.5H165.1" style="stroke-dashoffset: 165; stroke-dasharray: 165;"/>
		<path class="line" d="M311.4,10H88.3" style="stroke-dashoffset: 223; stroke-dasharray: 223;"/>
		<path class="line" d="M315.1,5.5H0" style="stroke-dashoffset: 330; stroke-dasharray: 330;"/>
		<path class="diamond" d="M320.6,0.5l-9.5,9.5l9.5,9.5l9.5-9.5L320.6,0.5z" style="stroke-dashoffset: 54; stroke-dasharray: 54;"/>
	</g>
</g>

<g class="root" id="arrow-right" viewBox="0 0 36 36">
	<path class="line" d="M0.5 17.5l17 17l17-17L17.5 0.5Z"  style="stroke-dashoffset: 97; stroke-dasharray: 97;"/>
	<path class="line" d="M0.94 17.5h23.4"  style="stroke-dashoffset: 25; stroke-dasharray: 25;"/>
	<polyline class="line" points="17.71 10.27 25.1 17.66 17.96 24.81" style="stroke-dashoffset: 25; stroke-dasharray: 25;"/>
</g>

<g class="root" id="arrow-up" viewBox="0 0 36 36">
	<path class="line" d="M17.5 34.5l17-17l-17-17l-17 17L17.5 34.5z"   style="stroke-dashoffset: 97; stroke-dasharray: 97;"/>
	<path class="line" d="M17.5 34.1V10.7" style="stroke-dashoffset: 25; stroke-dasharray: 25;"/>
	<polyline class="line" points="10.1 17.5 17.5 10.1 24.6 17.3" style="stroke-dashoffset: 25; stroke-dasharray: 25;"/>
</g>	

<g class="root" id="arrow-left" viewBox="0 0 36 36">
	<path class="line" d="M34.5 17.5L17.5 0.5l-17 17l17 17Z"  style="stroke-dashoffset: 97; stroke-dasharray: 97;" />
	<path class="line" d="M34.06 17.5H10.67" style="stroke-dashoffset: 25; stroke-dasharray: 25;"/>
	<polyline class="line" points="17.71 25.14 10.31 17.75 17.46 10.6" style="stroke-dashoffset: 25; stroke-dasharray: 25;"/>
</g>

<g class="root" id="arrow-down" viewBox="0 0 36 36">
	<path class="line" d="M17.5 0.5l-17 17l17 17l17-17Z"  style="stroke-dashoffset: 97; stroke-dasharray: 97;" />
	<path class="line" d="M17.5 0.94v23.4" style="stroke-dashoffset: 25; stroke-dasharray: 25;"/>
	<polyline class="line" points="25.14 17.71 17.75 25.1 10.6 17.96" style="stroke-dashoffset: 25; stroke-dasharray: 25;"/>
</g>

</svg>


